# xmcd
#
# Track frame offsets:
#	150
#	15498
#	33052
#	48181
#	65918
#	86503
#	106461
#	123736
#	140444
#	159648
#	181645
#	196960
#	214138
#
# Disc length: 3133 seconds
# Revision: 0
# Processed by: cddbd v1.5.2PL0 Copyright (c) Steve Scherf et al.
# Submitted via: dBpowerAMP V12.0
#
DISCID=ae0c3b0d
DTITLE=Suzanne Petersen - So Many Nights
DYEAR=2017
DGENRE=Blues Jazz
TTITLE0=Black Cat
TTITLE1=Mixed Up
TTITLE2=Drinking Black
TTITLE3=Long Way Back
TTITLE4=So Many Nights
TTITLE5=If You See Karen
TTITLE6=I Guess He Loves Me
TTITLE7=Love In Inverloch
TTITLE8=Come Back To Me
TTITLE9=Taking The Street
TTITLE10=Bricks And Mortar
TTITLE11=Lucky
TTITLE12=Last Train Out Of Hurstbridge
EXTD=
EXTT0=
EXTT1=
EXTT2=
EXTT3=
EXTT4=
EXTT5=
EXTT6=
EXTT7=
EXTT8=
EXTT9=
EXTT10=
EXTT11=
EXTT12=
PLAYORDER=
